<?xml version="1.0" standalone="no"?><!DOCTYPE svg PUBLIC "-//W3C//DTD SVG 1.1//EN" "http://www.w3.org/Graphics/SVG/1.1/DTD/svg11.dtd"><svg t="1771746395877" class="icon" viewBox="0 0 1024 1024" version="1.1" xmlns="http://www.w3.org/2000/svg" p-id="6502" xmlns:xlink="http://www.w3.org/1999/xlink" width="16" height="16"><path d="M441.856 934.912h151.04v-169.472H441.856zM297.472 502.272c0 46.592-33.28 84.48-73.728 84.48-40.96 0-73.728-37.888-73.728-84.48s33.28-84.48 73.728-84.48c40.448 0.512 73.728 37.888 73.728 84.48zM885.248 502.272c0 46.592-33.28 84.48-73.728 84.48S737.28 548.864 737.28 502.272s33.28-84.48 73.728-84.48 74.24 37.888 74.24 84.48z" fill="#F7D6B7" p-id="6503"></path><path d="M811.008 341.504c0-123.904-90.624-215.04-293.376-215.04-202.752 0-293.376 90.624-293.376 215.04 0 123.904-20.992 451.072 293.376 451.072s293.376-327.168 293.376-451.072z" fill="#F7D6B7" p-id="6504"></path><path d="M269.824 354.304c-2.048-50.176 29.184-86.016 90.624-113.664 0 0 176.128 50.176 299.52 50.176 161.792 0 118.784 189.952 147.968 191.488 29.184 1.536 60.928-216.576 27.136-341.504 0 0-95.744-118.272-285.696-138.24-189.952-20.48-346.624 85.504-354.304 247.296-6.656 142.848 4.608 232.448 28.672 232.448 25.6 0 48.64-77.824 46.08-128z" fill="#75491A" p-id="6505"></path><path d="M512 822.272V1024h389.12c0-81.408-204.8-201.728-389.12-201.728zM512 822.272V1024H122.88c0-81.408 204.8-201.728 389.12-201.728z" fill="#FF6741" p-id="6506"></path></svg>