<?xml version="1.0" standalone="no"?><!DOCTYPE svg PUBLIC "-//W3C//DTD SVG 1.1//EN" "http://www.w3.org/Graphics/SVG/1.1/DTD/svg11.dtd"><svg t="1771749388540" class="icon" viewBox="0 0 1024 1024" version="1.1" xmlns="http://www.w3.org/2000/svg" p-id="9570" xmlns:xlink="http://www.w3.org/1999/xlink" width="16" height="16"><path d="M905.76925156 767.77550967l28.10303614 15.38699238c18.75471153 10.24831758 28.13206729 27.08691328 28.13206728 50.51578623v74.69949463c0 15.24183223-5.42899511 27.98690713-16.2579542 38.23522471-10.82895908 10.24831758-24.18370752 15.38699238-40.00618125 15.38699238H118.27458652c-15.7934417 0-29.14818925-5.1386748-39.97714834-15.38699238A50.48675508 50.48675508 0 0 1 62.01045195 908.37778291V833.67828828c0-23.42887383 9.37735576-40.26746953 28.13206729-50.51578623l28.13206728-15.38699238 244.33382901-116.0411502c-15.82247373-8.18704161-46.88677881-15.09667208-93.19291699-20.64179531-46.27710615-5.57415615-72.05757627-15.67731357-77.34141211-30.30947226l26.825625-50.98029961c17.85471768-33.96751172 30.01915107-76.1801291 36.46426904-126.57978809 2.32256513-19.33535303 5.42899511-42.18358535 9.2321956-68.51566407 3.80319961-26.41917568 7.75156026-57.74476992 11.87411309-94.06387968 2.90320576-28.74174083 11.1192794-55.36414072 24.59015595-79.98332871a220.90495518 220.90495518 0 0 1 51.41578096-63.28989405A229.26618896 229.26618896 0 0 1 424.56283437 76.52212754 259.60469326 259.60469326 0 0 1 512.00740303 62.00609697c31.06430596 0 60.21249521 4.84835449 87.44456953 14.51603056a229.26618896 229.26618896 0 0 1 72.0866083 40.84811016 220.90495518 220.90495518 0 0 1 51.38674805 63.28989405c13.49990859 24.61918799 21.68695019 51.2706208 24.61918886 79.98332871 4.12255283 36.31910888 8.07091347 67.64470312 11.87411309 94.06387968 3.80319961 26.33207959 6.88059844 49.18031191 9.23219472 68.51566407 6.44511797 50.39965898 18.58051933 92.61227549 36.46426992 126.57978809l26.82562413 50.98029961c-5.28383496 14.63215869-31.06430596 24.73531612-77.37044327 30.30947226-46.27710615 5.57415615-77.34141123 12.45475459-93.16388495 20.64179532l244.33382812 116.04115019z" fill="#d4237a" p-id="9571"></path></svg>